# xmcd
#
# Track frame offsets:
#	217
#	13520
#	26127
#	40190
#	52400
#	65660
#	76180
#	91475
#	103757
#	114307
#	129847
#	141985
#	154230
#	171525
#	183730
#	199617
#	214157
#	227782
#	243582
#	255295
#	264555
#
# Disc length: 3713
#
# Revision: 1
# Processed by: cddbd v1.5.1PL0 Copyright (c) Steve Scherf et al.
# Submitted via: CDex 1.51
# Normalized: r0:DSETVAR2,TDELIM( - ),TSWAP
#
DISCID=310e7f15
DTITLE=Various Artist - Percy Slegde and Johnny Oltis
DYEAR=1996
DGENRE=Blues
TTITLE0=Percy Sledge - My special prayer
TTITLE1=Percy Sledge - Whan a man loves a woman
TTITLE2=Percy Sledge - Warm and tender love
TTITLE3=Percy Sledge - My adorable one
TTITLE4=Percy Sledge - Take time to know her
TTITLE5=Percy Sledge - Thief in the night
TTITLE6=Percy Sledge - out of left field
TTITLE7=Percy Sledge - It tears me up
TTITLE8=Percy Sledge - You're pouring water on a drowning man
TTITLE9=Percy Sledge - Just out of reach
TTITLE10=Percy Sledge - Cover me
TTITLE11=Johnny Otis - Willie and the hand jive
TTITLE12=Johnny Otis - Barrelhouse blues
TTITLE13=Johnny Otis - Please don't leave me now
TTITLE14=Johnny Otis - Bad luck shadow
TTITLE15=Johnny Otis - Fanny Mae
TTITLE16=Johnny Otis - The signifying monkey
TTITLE17=Johnny Otis - Harlem nocturne
TTITLE18=Johnny Otis - Stack-a-lee
TTITLE19=Johnny Otis - Baby I've got news for you
TTITLE20=Johnny Otis - Bye Bye Baby
EXTD=YEAR: 1996
EXTT0=
EXTT1=
EXTT2=
EXTT3=
EXTT4=
EXTT5=
EXTT6=
EXTT7=
EXTT8=
EXTT9=
EXTT10=
EXTT11=
EXTT12=
EXTT13=
EXTT14=
EXTT15=
EXTT16=
EXTT17=
EXTT18=
EXTT19=
EXTT20=
PLAYORDER=
